<?xml version="1.0" ?><!DOCTYPE svg  PUBLIC '-//W3C//DTD SVG 1.1//EN'  'http://www.w3.org/Graphics/SVG/1.1/DTD/svg11.dtd'><svg enable-background="new 0.5 0.5 128 128" height="128px" id="Layer_1" version="1.1" viewBox="0.5 0.5 128 128" width="128px" xml:space="preserve" xmlns="http://www.w3.org/2000/svg" xmlns:xlink="http://www.w3.org/1999/xlink"><path d="M43.5,52.5c7.732,0,14,6.268,14,14v17v6v17c0,5.514,4.486,10,10,10s10-4.486,10-10v-10h4v10  c0,7.732-6.268,14-14,14s-14-6.268-14-14v-17v-6v-17c0-5.514-4.486-10-10-10s-10,4.486-10,10v38l-4,1v-39  C29.5,58.768,35.768,52.5,43.5,52.5z" fill="#064A76"/><polygon fill="#064A76" points="72.5,96.5 86.5,96.5 79.5,82.5 "/><path d="M31.5,103.5c-4.971,0-9,4.029-9,9s4.029,9,9,9c4.969,0,9-4.029,9-9S36.469,103.5,31.5,103.5z M31.5,117.5  c-2.757,0-5-2.243-5-5s2.243-5,5-5s5,2.243,5,5S34.257,117.5,31.5,117.5z" fill="#F47E2F"/><rect fill="#F8A01C" height="4" width="14" x="72.5" y="68.5"/><rect fill="#F8A01C" height="4" width="6" x="76.5" y="76.5"/><path d="M79.5,22.375c-9.941,0-18,8.06-18,18c0,7.458,4.536,13.856,11,16.588c0,1.75,0,7.537,0,7.537h14  c0,0,0-5.787,0-7.537c6.464-2.731,11-9.13,11-16.588C97.5,30.435,89.441,22.375,79.5,22.375z M84.943,53.278L82.5,54.311V60.5h-6  v-6.189l-2.443-1.032c-5.197-2.196-8.557-7.262-8.557-12.903c0-7.72,6.28-14,14-14s14,6.28,14,14  C93.5,46.017,90.141,51.082,84.943,53.278z" fill="#F8A01C"/><polygon fill="#064A76" points="88.279,34.55 78.379,44.449 72.723,38.792 69.894,41.621 78.379,50.105 81.328,47.156   91.107,37.378 "/><g><rect fill="#EE5223" height="4" width="12" x="44.5" y="39.5"/><rect fill="#EE5223" height="12" transform="matrix(0.5 -0.866 0.866 0.5 2.4338 59.2146)" width="4" x="50.5" y="21.499"/><rect fill="#EE5223" height="12" transform="matrix(0.866 -0.5 0.5 0.866 0.6244 33.3283)" width="4" x="60.5" y="9.499"/><rect fill="#EE5223" height="12" width="4" x="77.5" y="5.5"/></g><rect fill="#EE5223" height="4" width="12" x="102.5" y="39.5"/><rect fill="#EE5223" height="12" transform="matrix(-0.5 -0.866 0.866 -0.5 135.5365 133.2484)" width="4" x="104.233" y="21.499"/><rect fill="#EE5223" height="12" transform="matrix(-0.8661 -0.4999 0.4999 -0.8661 171.8283 77.0308)" width="4.001" x="94.232" y="9.499"/></svg>