<?xml version="1.0" ?><svg id="Layer_1" style="enable-background:new 0 0 128 128;" version="1.1" viewBox="0 0 128 128" xml:space="preserve" xmlns="http://www.w3.org/2000/svg" xmlns:xlink="http://www.w3.org/1999/xlink"><style type="text/css">
	.st0{fill:#1D75B9;}
	.st1{fill:#2D3E50;}
	.st2{fill:#007BBF;}
	.st3{fill:none;}
</style><g><path class="st0" d="M125,72.9l-5.1,5.1l-4.5-4.5L98.6,56.9L87,45.4c0.1-0.2,0.2-0.3,0.2-0.5c2.3-5.4-0.1-11.7-5.5-14   c-5.4-2.3-11.7,0.1-14,5.5c-1.5,3.3-1.1,7,0.7,9.9L57,61.1c1.6,1.8,3.4,3.3,5.4,4.6l11.5-15c1.1,0.4,2.3,0.6,3.5,0.6   c1.6,0,3.1-0.3,4.5-1l12.5,12.4l12.7,12.6l3.4,3.4l4.4,4.3l-4.9,4.9c-0.5,0.5-0.1,1.3,0.5,1.3l15,0c0.4,0,0.7-0.3,0.7-0.7l0-15   C126.3,72.8,125.5,72.5,125,72.9z M82.4,40.9c0,0.6-0.2,1.2-0.4,1.8c-1.1,2.5-4.1,3.7-6.6,2.6c-1.8-0.8-2.9-2.4-3-4.2   c-0.1-0.8,0.1-1.6,0.4-2.4c0.7-1.6,2.1-2.6,3.7-2.9c0.2-0.1,0.4-0.1,0.6-0.1c0.1,0,0.2,0,0.3,0c0.7,0,1.3,0.1,2,0.4   c1.9,0.8,3,2.7,3,4.6C82.5,40.7,82.5,40.8,82.4,40.9z M43.1,79.1l-5.8,7.5c-5.3-2-11.3,0.5-13.6,5.7c-0.1,0.2-0.2,0.5-0.3,0.7H5.3   c-1.9,0-3.5,1.6-3.5,3.5c0,1.9,1.6,3.5,3.5,3.5h18.2c0,0.1,0.1,0.2,0.1,0.4c1,2.7,3,4.7,5.6,5.9c1.4,0.6,2.8,0.9,4.2,0.9   c1.3,0,2.6-0.3,3.9-0.7c2.6-1,4.7-3,5.9-5.7c1.4-3.2,1.1-6.8-0.6-9.6l5.9-7.6C46.6,82.3,44.8,80.8,43.1,79.1z M38.5,96.6   c0,0.7-0.1,1.3-0.4,2c-0.5,1.2-1.5,2.2-2.8,2.7c-1.2,0.5-2.6,0.5-3.8-0.1c-0.6-0.3-1.1-0.6-1.6-1.1c-0.5-0.5-0.8-1-1.1-1.7   c-0.5-1.2-0.5-2.6,0.1-3.8c0.3-0.6,0.6-1.1,1.1-1.5c0.9-0.9,2.2-1.5,3.5-1.5h0c0.7,0,1.3,0.1,2,0.4C37.3,92.8,38.5,94.7,38.5,96.6   L38.5,96.6z"/><path class="st1" d="M76.1,3.1C53.4,3.1,35,21.5,35,44.1c0,8.9,2.9,17.2,7.7,23.9c4.2,5.8,9.8,10.5,16.4,13.4   c2.9,1.3,6,2.3,9.2,2.9v32.8c0,4.3,3.5,7.8,7.8,7.8c4.3,0,7.8-3.5,7.8-7.8V84.4c5.8-1.1,11.1-3.4,15.8-6.7l-6.1-6.1   c-5,3.2-11,5.1-17.4,5.1c-4.1,0-8-0.8-11.6-2.1C57.6,72,51.9,67.2,48.2,61c-3-4.9-4.7-10.7-4.7-16.9c0-18,14.6-32.6,32.6-32.6   s32.6,14.6,32.6,32.6c0,3.8-0.7,7.5-1.9,10.9l6.5,6.4c2.5-5.3,3.9-11.2,3.9-17.4C117.1,21.5,98.7,3.1,76.1,3.1z"/></g></svg>